<mxfile host="app.diagrams.net" agent="Mozilla/5.0 (Windows NT 10.0; Win64; x64) AppleWebKit/537.36 (KHTML, like Gecko) Chrome/137.0.0.0 Safari/537.36" version="27.1.3">
  <diagram name="Page-1" id="b0yqNEFQCU7T4kmP8u4u">
    <mxGraphModel dx="2253" dy="743" grid="1" gridSize="10" guides="1" tooltips="1" connect="1" arrows="1" fold="1" page="1" pageScale="1" pageWidth="827" pageHeight="1169" math="0" shadow="0">
      <root>
        <mxCell id="0" />
        <mxCell id="1" parent="0" />
        <mxCell id="yawxd3-pvh3Dt_qEODWY-40" style="edgeStyle=orthogonalEdgeStyle;rounded=0;orthogonalLoop=1;jettySize=auto;html=1;exitX=0.5;exitY=1;exitDx=0;exitDy=0;entryX=0.5;entryY=0;entryDx=0;entryDy=0;" edge="1" parent="1" source="yawxd3-pvh3Dt_qEODWY-2" target="yawxd3-pvh3Dt_qEODWY-39">
          <mxGeometry relative="1" as="geometry" />
        </mxCell>
        <mxCell id="yawxd3-pvh3Dt_qEODWY-2" value="update_message(message)&lt;div&gt;&lt;br&gt;&lt;/div&gt;&lt;div&gt;take a message argument and update the richtext content.&lt;/div&gt;" style="rounded=0;whiteSpace=wrap;html=1;" vertex="1" parent="1">
          <mxGeometry x="55" y="120" width="170" height="60" as="geometry" />
        </mxCell>
        <mxCell id="yawxd3-pvh3Dt_qEODWY-33" style="edgeStyle=orthogonalEdgeStyle;rounded=0;orthogonalLoop=1;jettySize=auto;html=1;exitX=0;exitY=0.5;exitDx=0;exitDy=0;entryX=0.5;entryY=0;entryDx=0;entryDy=0;dashed=1;" edge="1" parent="1" source="yawxd3-pvh3Dt_qEODWY-4" target="yawxd3-pvh3Dt_qEODWY-32">
          <mxGeometry relative="1" as="geometry" />
        </mxCell>
        <mxCell id="yawxd3-pvh3Dt_qEODWY-34" value="Push each split" style="edgeLabel;html=1;align=center;verticalAlign=middle;resizable=0;points=[];" vertex="1" connectable="0" parent="yawxd3-pvh3Dt_qEODWY-33">
          <mxGeometry x="-0.1444" relative="1" as="geometry">
            <mxPoint as="offset" />
          </mxGeometry>
        </mxCell>
        <mxCell id="yawxd3-pvh3Dt_qEODWY-4" value="placeholder_splitter(message)&lt;div&gt;&lt;br&gt;&lt;div&gt;use regex to check for placeholders and split at each regex match.&lt;/div&gt;&lt;div&gt;&lt;br&gt;&lt;/div&gt;&lt;/div&gt;" style="whiteSpace=wrap;html=1;rounded=0;" vertex="1" parent="1">
          <mxGeometry x="40" y="258" width="200" height="100" as="geometry" />
        </mxCell>
        <mxCell id="yawxd3-pvh3Dt_qEODWY-43" style="edgeStyle=orthogonalEdgeStyle;rounded=0;orthogonalLoop=1;jettySize=auto;html=1;exitX=1;exitY=0.5;exitDx=0;exitDy=0;entryX=0;entryY=0.5;entryDx=0;entryDy=0;" edge="1" parent="1" source="yawxd3-pvh3Dt_qEODWY-6" target="yawxd3-pvh3Dt_qEODWY-42">
          <mxGeometry relative="1" as="geometry" />
        </mxCell>
        <mxCell id="yawxd3-pvh3Dt_qEODWY-6" value="replace_placeholders(message_array[], replacement_dict)&lt;div&gt;&lt;br&gt;&lt;div&gt;check each element against dictionary containing replacement values&lt;/div&gt;&lt;/div&gt;&lt;div&gt;return message with placeholders replaced&lt;/div&gt;" style="rounded=0;whiteSpace=wrap;html=1;" vertex="1" parent="1">
          <mxGeometry x="41" y="388" width="280" height="92" as="geometry" />
        </mxCell>
        <mxCell id="yawxd3-pvh3Dt_qEODWY-46" style="edgeStyle=orthogonalEdgeStyle;rounded=0;orthogonalLoop=1;jettySize=auto;html=1;exitX=1;exitY=0.25;exitDx=0;exitDy=0;entryX=0;entryY=0.5;entryDx=0;entryDy=0;" edge="1" parent="1" source="yawxd3-pvh3Dt_qEODWY-16" target="yawxd3-pvh3Dt_qEODWY-44">
          <mxGeometry relative="1" as="geometry" />
        </mxCell>
        <mxCell id="yawxd3-pvh3Dt_qEODWY-48" value="Yes?" style="edgeLabel;html=1;align=center;verticalAlign=middle;resizable=0;points=[];" vertex="1" connectable="0" parent="yawxd3-pvh3Dt_qEODWY-46">
          <mxGeometry x="-0.3115" y="3" relative="1" as="geometry">
            <mxPoint as="offset" />
          </mxGeometry>
        </mxCell>
        <mxCell id="yawxd3-pvh3Dt_qEODWY-47" style="edgeStyle=orthogonalEdgeStyle;rounded=0;orthogonalLoop=1;jettySize=auto;html=1;exitX=1;exitY=0.75;exitDx=0;exitDy=0;entryX=0;entryY=0.5;entryDx=0;entryDy=0;" edge="1" parent="1" source="yawxd3-pvh3Dt_qEODWY-16" target="yawxd3-pvh3Dt_qEODWY-45">
          <mxGeometry relative="1" as="geometry" />
        </mxCell>
        <mxCell id="yawxd3-pvh3Dt_qEODWY-49" value="No?" style="edgeLabel;html=1;align=center;verticalAlign=middle;resizable=0;points=[];" vertex="1" connectable="0" parent="yawxd3-pvh3Dt_qEODWY-47">
          <mxGeometry x="0.04" y="1" relative="1" as="geometry">
            <mxPoint as="offset" />
          </mxGeometry>
        </mxCell>
        <mxCell id="yawxd3-pvh3Dt_qEODWY-16" value="does it exist in replacement_dict{}?" style="rounded=0;whiteSpace=wrap;html=1;" vertex="1" parent="1">
          <mxGeometry x="630" y="356" width="130" height="60" as="geometry" />
        </mxCell>
        <mxCell id="yawxd3-pvh3Dt_qEODWY-17" style="edgeStyle=orthogonalEdgeStyle;rounded=0;orthogonalLoop=1;jettySize=auto;html=1;exitX=0.5;exitY=1;exitDx=0;exitDy=0;entryX=0.5;entryY=0;entryDx=0;entryDy=0;" edge="1" parent="1" source="yawxd3-pvh3Dt_qEODWY-18" target="yawxd3-pvh3Dt_qEODWY-2">
          <mxGeometry relative="1" as="geometry" />
        </mxCell>
        <mxCell id="yawxd3-pvh3Dt_qEODWY-18" value="&lt;h2&gt;on_input_pressed()&lt;/h2&gt;" style="rounded=1;whiteSpace=wrap;html=1;" vertex="1" parent="1">
          <mxGeometry x="30" y="50" width="220" height="50" as="geometry" />
        </mxCell>
        <mxCell id="yawxd3-pvh3Dt_qEODWY-19" value="&lt;h2&gt;Update RichTextLabel.text&lt;/h2&gt;" style="rounded=1;whiteSpace=wrap;html=1;" vertex="1" parent="1">
          <mxGeometry x="20" y="700" width="220" height="60" as="geometry" />
        </mxCell>
        <mxCell id="yawxd3-pvh3Dt_qEODWY-22" value="Take &#39;message&#39; and split at each placeholder&amp;nbsp;using a regex&lt;div&gt;&lt;br&gt;&lt;div&gt;push each split to message_array[]&lt;/div&gt;&lt;div&gt;&lt;br&gt;&lt;/div&gt;&lt;div&gt;iterate through array, run a replacer() function that uses a match statement to check each element against a list of replacements&lt;/div&gt;&lt;div&gt;&lt;br&gt;&lt;/div&gt;&lt;div&gt;if i match is found, change the element in message_array[]&lt;/div&gt;&lt;div&gt;&lt;br&gt;&lt;/div&gt;&lt;div&gt;repeat for all elements&lt;/div&gt;&lt;div&gt;&lt;br&gt;&lt;/div&gt;&lt;div&gt;once complete, concat all elements in message_array[] and update richtextlabel.&lt;/div&gt;&lt;/div&gt;" style="rounded=0;whiteSpace=wrap;html=1;" vertex="1" parent="1">
          <mxGeometry x="345" y="70" width="390" height="210" as="geometry" />
        </mxCell>
        <mxCell id="yawxd3-pvh3Dt_qEODWY-32" value="var message_array[]" style="rounded=0;whiteSpace=wrap;html=1;" vertex="1" parent="1">
          <mxGeometry x="-170" y="348" width="140" height="40" as="geometry" />
        </mxCell>
        <mxCell id="yawxd3-pvh3Dt_qEODWY-35" style="edgeStyle=orthogonalEdgeStyle;rounded=0;orthogonalLoop=1;jettySize=auto;html=1;exitX=0.5;exitY=1;exitDx=0;exitDy=0;entryX=0.354;entryY=0.011;entryDx=0;entryDy=0;entryPerimeter=0;" edge="1" parent="1" source="yawxd3-pvh3Dt_qEODWY-4" target="yawxd3-pvh3Dt_qEODWY-6">
          <mxGeometry relative="1" as="geometry" />
        </mxCell>
        <mxCell id="yawxd3-pvh3Dt_qEODWY-36" value="var replacement_dict{}" style="rounded=0;whiteSpace=wrap;html=1;" vertex="1" parent="1">
          <mxGeometry x="414" y="300" width="140" height="40" as="geometry" />
        </mxCell>
        <mxCell id="yawxd3-pvh3Dt_qEODWY-38" style="edgeStyle=orthogonalEdgeStyle;rounded=0;orthogonalLoop=1;jettySize=auto;html=1;exitX=0.5;exitY=1;exitDx=0;exitDy=0;entryX=0;entryY=0.25;entryDx=0;entryDy=0;dashed=1;" edge="1" parent="1" source="yawxd3-pvh3Dt_qEODWY-37" target="yawxd3-pvh3Dt_qEODWY-4">
          <mxGeometry relative="1" as="geometry" />
        </mxCell>
        <mxCell id="yawxd3-pvh3Dt_qEODWY-37" value="var replacement_regex" style="rounded=0;whiteSpace=wrap;html=1;" vertex="1" parent="1">
          <mxGeometry x="-170" y="218" width="140" height="40" as="geometry" />
        </mxCell>
        <mxCell id="yawxd3-pvh3Dt_qEODWY-41" style="edgeStyle=orthogonalEdgeStyle;rounded=0;orthogonalLoop=1;jettySize=auto;html=1;exitX=0.5;exitY=1;exitDx=0;exitDy=0;entryX=0.5;entryY=0;entryDx=0;entryDy=0;" edge="1" parent="1" source="yawxd3-pvh3Dt_qEODWY-39" target="yawxd3-pvh3Dt_qEODWY-4">
          <mxGeometry relative="1" as="geometry" />
        </mxCell>
        <mxCell id="yawxd3-pvh3Dt_qEODWY-39" value="if elements are present, clear message_array[]" style="rounded=0;whiteSpace=wrap;html=1;" vertex="1" parent="1">
          <mxGeometry x="5.5" y="200" width="269" height="40" as="geometry" />
        </mxCell>
        <mxCell id="yawxd3-pvh3Dt_qEODWY-42" value="for each element in message_array[]" style="rounded=0;whiteSpace=wrap;html=1;" vertex="1" parent="1">
          <mxGeometry x="345" y="404" width="120" height="60" as="geometry" />
        </mxCell>
        <mxCell id="yawxd3-pvh3Dt_qEODWY-44" value="set element to replacement_dict.element" style="rounded=0;whiteSpace=wrap;html=1;" vertex="1" parent="1">
          <mxGeometry x="820" y="330" width="170" height="60" as="geometry" />
        </mxCell>
        <mxCell id="yawxd3-pvh3Dt_qEODWY-45" value="do nothing" style="rounded=0;whiteSpace=wrap;html=1;" vertex="1" parent="1">
          <mxGeometry x="820" y="416" width="120" height="20" as="geometry" />
        </mxCell>
      </root>
    </mxGraphModel>
  </diagram>
</mxfile>
